<svg id="Layer_1" data-name="Layer 1" xmlns="http://www.w3.org/2000/svg" viewBox="0 0 280 300"><defs><style>.cls-1{fill:#fff;}.cls-1,.cls-2,.cls-3,.cls-4,.cls-5{fill-rule:evenodd;}.cls-3{fill:#f58220;}.cls-4{fill:#00a651;}.cls-5{fill:#231f20;}</style></defs><title>BJP Logo</title><polygon class="cls-1" points="93.3 80.46 92.96 80.02 89.59 75.75 94.1 73.48 94.34 73.37 94.61 73.25 94.87 73.14 95.13 73.04 95.4 72.94 95.67 72.85 95.96 72.76 96.29 72.66 96.65 72.57 97.01 72.5 97.38 72.44 97.74 72.4 98.12 72.36 98.48 72.35 98.83 72.34 99.43 72.35 100.03 72.37 100.62 72.4 101.22 72.44 101.81 72.49 102.39 72.56 102.99 72.64 103.57 72.73 104.16 72.83 104.74 72.94 105.33 73.07 105.91 73.21 106.49 73.36 107.07 73.52 107.65 73.7 108.22 73.88 108.79 74.08 109.36 74.29 109.93 74.51 110.5 74.74 111.07 74.98 111.63 75.24 112.19 75.5 112.75 75.78 113.31 76.07 113.86 76.37 114.42 76.68 114.96 77 115.51 77.33 116.06 77.67 116.61 78.03 117.14 78.39 117.68 78.76 118.22 79.15 118.75 79.54 119.27 79.94 119.79 80.35 120.3 80.77 120.8 81.2 121.3 81.63 121.79 82.08 122.28 82.53 122.76 82.99 123.23 83.46 123.7 83.94 124.16 84.42 124.62 84.92 125.07 85.42 125.51 85.93 125.95 86.45 126.38 86.97 126.81 87.51 127.23 88.05 127.64 88.6 127.66 88.62 127.88 88.21 128.26 87.5 128.66 86.79 129.06 86.06 129.48 85.33 129.91 84.59 130.34 83.84 130.79 83.08 131.25 82.32 131.71 81.54 132.19 80.76 132.68 79.97 133.18 79.16 133.69 78.35 134.2 77.53 134.73 76.71 135.27 75.87 135.82 75.03 136.38 74.17 136.95 73.31 137.53 72.44 138.12 71.56 141.62 66.38 145.21 70.84 145.57 71.31 145.93 71.79 146.29 72.28 146.65 72.78 147.01 73.3 147.38 73.83 147.74 74.37 148.1 74.92 148.46 75.49 148.83 76.08 149.19 76.67 149.56 77.28 149.93 77.9 150.29 78.54 150.66 79.19 151.03 79.85 151.4 80.53 151.78 81.22 152.15 81.93 152.53 82.64 152.9 83.38 153.28 84.12 153.66 84.88 154.04 85.65 154.04 85.66 154.23 85.43 154.97 84.6 155.72 83.78 156.49 82.99 157.27 82.22 158.06 81.47 158.87 80.74 159.69 80.03 160.52 79.35 161.37 78.68 162.22 78.04 163.09 77.42 163.97 76.83 164.86 76.26 165.75 75.72 166.65 75.22 167.56 74.74 168.47 74.28 169.39 73.86 170.32 73.47 171.25 73.11 172.19 72.77 173.14 72.47 174.09 72.19 175.05 71.95 176.01 71.74 177.29 71.5 178.03 71.51 178.45 71.52 178.87 71.55 179.27 71.58 179.68 71.63 180.09 71.69 180.5 71.75 180.89 71.83 181.24 71.9 181.58 71.98 181.92 72.06 182.25 72.14 182.59 72.22 182.92 72.31 183.24 72.4 188.2 73.86 185.63 78.58 185.41 78.98 185.21 79.38 185.01 79.78 184.82 80.17 184.64 80.56 184.46 80.96 184.29 81.35 184.13 81.73 183.97 82.12 183.81 82.51 183.67 82.89 183.53 83.27 183.4 83.66 183.28 84.04 183.16 84.41 183.05 84.78 182.95 85.14 182.85 85.5 182.76 85.86 182.71 86.11 183.14 85.66 183.61 85.19 184.08 84.73 184.56 84.28 185.05 83.84 185.54 83.41 186.04 82.98 186.54 82.56 187.06 82.15 187.57 81.75 188.09 81.35 188.63 80.97 189.16 80.59 189.71 80.22 190.25 79.86 190.81 79.5 191.37 79.16 191.93 78.82 192.49 78.5 193.06 78.19 193.63 77.89 194.2 77.6 194.78 77.32 195.35 77.06 195.93 76.8 196.52 76.55 197.11 76.32 197.69 76.1 198.28 75.89 198.88 75.68 199.47 75.5 200.07 75.32 200.67 75.15 201.28 75 201.88 74.85 202.49 74.72 203.1 74.6 203.71 74.49 204.32 74.39 204.94 74.31 205.55 74.23 206.18 74.17 206.8 74.12 207.42 74.08 208.04 74.05 208.67 74.03 209.31 74.03 209.85 74.03 210.4 74.06 210.95 74.1 211.48 74.16 212.02 74.24 212.55 74.34 213.07 74.45 213.59 74.59 214.11 74.75 214.62 74.94 215.13 75.16 215.63 75.4 216.11 75.66 216.58 75.96 217.04 76.29 220.67 79.25 217.25 82.87 216.8 83.36 216.37 83.87 215.94 84.38 215.53 84.89 215.13 85.41 214.75 85.93 214.38 86.47 214.03 87 213.69 87.54 213.35 88.09 213.04 88.64 212.74 89.2 212.44 89.77 212.17 90.34 211.9 90.92 211.65 91.5 211.42 92.07 211.21 92.64 211.01 93.21 210.83 93.78 210.66 94.34 210.51 94.9 210.38 95.45 210.27 96 210.16 96.56 210.08 97.11 210.01 97.65 209.96 98.19 209.92 98.74 209.9 99.28 209.89 99.84 209.89 100.17 209.9 100.56 209.9 100.97 209.91 101.4 209.93 101.85 209.94 102.33 209.96 102.83 209.99 103.36 210.01 103.9 210.04 104.48 210.08 105.07 210.11 105.69 210.15 106.32 210.19 106.99 210.24 107.67 210.29 108.38 210.34 109.1 210.38 109.8 210.43 110.48 210.47 111.14 210.5 111.78 210.54 112.4 210.57 113 210.6 113.58 210.62 114.14 210.64 114.67 210.66 115.19 210.67 115.69 210.69 116.17 210.69 116.63 210.7 117.07 210.7 117.49 210.7 118.14 210.68 118.79 210.66 119.44 210.63 120.08 210.59 120.73 210.55 121.38 210.49 122.02 210.42 122.66 210.35 123.3 210.27 123.94 210.18 124.58 210.08 125.22 209.97 125.85 209.85 126.49 209.73 127.12 209.59 127.75 209.45 128.37 209.3 129 209.14 129.63 208.97 130.25 208.79 130.87 208.61 131.49 208.41 132.11 208.21 132.72 208 133.33 207.78 133.95 207.55 134.56 207.31 135.16 207.07 135.77 206.81 136.37 206.55 136.98 206.28 137.57 206 138.17 205.71 138.76 205.42 139.35 205.12 139.93 204.81 140.5 204.5 141.07 204.18 141.64 203.85 142.2 203.52 142.76 203.18 143.31 202.83 143.85 202.47 144.4 202.11 144.93 201.74 145.46 201.37 145.99 200.98 146.51 200.59 147.03 200.19 147.53 199.79 148.04 199.38 148.54 198.97 149.03 198.54 149.52 198.11 150 197.67 150.48 197.23 150.96 197.17 151.02 197.23 151.08 197.62 151.5 198 151.94 198.37 152.37 198.73 152.82 199.07 153.27 199.41 153.73 199.72 154.2 200.03 154.67 200.32 155.15 200.6 155.64 200.86 156.13 201.1 156.63 201.33 157.13 201.54 157.63 201.73 158.15 201.91 158.66 202.06 159.18 202.2 159.71 202.31 160.24 202.41 160.77 202.48 161.3 202.54 161.84 202.57 162.38 202.58 162.97 202.56 163.52 202.49 164.09 202.39 164.65 202.27 165.2 202.12 165.76 201.96 166.34 201.76 166.95 199.89 172.55 195.29 169.18 194.93 168.93 194.59 168.7 194.28 168.49 193.99 168.3 193.72 168.14 193.48 168 193.26 167.89 193.07 167.79 192.92 167.72 192.83 167.69 192.73 167.69 192.56 167.71 192.37 167.73 192.19 167.75 191.99 167.79 191.79 167.83 191.57 167.88 191.35 167.94 191.12 168.01 190.89 168.08 190.64 168.17 190.39 168.26 190.13 168.36 189.86 168.48 189.59 168.6 189.32 168.72 189.06 168.86 188.79 169 188.51 169.15 188.24 169.31 187.96 169.48 187.68 169.66 187.4 169.85 187.11 170.05 186.83 170.26 186.54 170.48 186.25 170.71 185.96 170.95 185.66 171.2 185.36 171.46 185.01 171.77 184.54 172.18 184.07 172.57 183.59 172.95 183.1 173.32 182.61 173.68 182.11 174.02 181.61 174.36 181.1 174.68 180.58 174.99 180.06 175.29 179.54 175.58 179.01 175.85 178.47 176.12 177.92 176.37 177.38 176.61 176.82 176.84 176.27 177.05 175.72 177.25 175.16 177.43 174.6 177.61 174.05 177.77 173.49 177.91 172.94 178.04 172.37 178.16 171.81 178.27 171.25 178.36 170.69 178.44 170.13 178.5 169.56 178.55 169 178.59 168.44 178.61 167.89 178.62 167.46 178.62 167.05 178.61 166.65 178.6 166.25 178.59 165.85 178.57 165.47 178.55 165.09 178.53 164.71 178.5 164.34 178.47 163.97 178.43 163.62 178.39 163.26 178.35 162.91 178.3 162.56 178.25 162.23 178.19 161.87 178.13 161.22 177.99 160.59 177.84 159.96 177.66 159.35 177.46 158.75 177.24 158.49 177.13 158.11 177.24 157.63 177.4 157.17 177.57 156.73 177.76 156.3 177.96 155.89 178.17 155.49 178.4 155.1 178.65 154.72 178.91 154.36 179.19 154 179.48 153.66 179.79 153.33 180.12 153 180.46 152.69 180.82 152.41 181.18 152.15 181.53 151.91 181.89 151.7 182.25 151.51 182.61 151.33 182.97 151.18 183.33 151.05 183.7 150.93 184.07 150.83 184.44 150.75 184.83 150.69 185.23 150.64 185.63 150.61 186.05 150.6 186.53 150.6 187.17 150.6 187.86 150.59 188.55 150.58 189.23 150.57 189.9 150.55 190.57 150.53 191.23 150.51 191.88 150.49 192.53 150.46 193.17 150.43 193.8 150.39 194.43 150.35 195.05 150.31 195.67 150.27 196.28 150.22 196.89 150.18 197.48 150.13 198.08 150.07 198.66 150.01 199.24 149.95 199.82 149.89 200.39 149.82 200.95 149.75 201.5 149.68 202.05 149.6 202.6 149.52 203.14 149.43 203.67 149.35 204.2 149.26 204.72 149.16 205.24 149.07 205.75 148.87 206.74 148.65 207.71 148.43 208.65 148.19 209.56 147.94 210.45 147.67 211.3 149.09 211.15 149.73 211.19 150.27 211.27 150.82 211.41 151.34 211.61 151.83 211.86 152.29 212.16 152.71 212.49 153.07 212.83 153.41 213.21 153.73 213.64 154.01 214.11 154.25 214.62 154.43 215.14 154.57 215.68 154.64 216.23 154.67 216.79 154.63 217.56 154.48 218.35 154.25 219.13 153.92 219.85 153.53 220.53 153.07 221.13 152.57 221.68 152.03 222.16 151.46 222.6 150.85 222.98 150.22 223.31 149.54 223.58 148.86 223.79 148.17 223.94 147.47 224.02 146.84 224.05 140.93 224.05 140.28 224 139.53 223.84 138.84 223.59 138.22 223.28 137.65 222.93 137.14 222.55 136.67 222.14 136.22 221.71 135.8 221.25 135.41 220.77 135.18 220.45 134.71 220.83 134.21 221.2 133.71 221.55 133.19 221.88 132.66 222.2 132.12 222.5 131.57 222.78 131.01 223.04 130.44 223.29 129.86 223.51 129.27 223.72 128.67 223.91 128.06 224.09 127.45 224.24 126.83 224.38 126.2 224.5 125.56 224.61 124.91 224.69 124.26 224.76 123.6 224.82 122.94 224.86 122.26 224.88 121.59 224.89 121.06 224.89 120.54 224.88 120.04 224.86 119.54 224.84 119.05 224.82 118.57 224.78 118.1 224.75 117.64 224.7 117.18 224.65 116.73 224.59 116.29 224.53 115.85 224.45 115.43 224.37 115.01 224.29 114.6 224.19 114.16 224.08 113.37 223.84 112.58 223.55 111.8 223.17 111 222.67 110.22 221.99 109.49 221.04 108.96 219.82 108.78 218.58 108.86 217.46 109.07 216.5 109.42 215.58 109.88 214.74 110.42 213.99 111.03 213.33 111.69 212.75 112.36 212.26 112.77 211.99 113.15 211.77 113.54 211.56 113.94 211.37 114.35 211.19 114.77 211.03 115.19 210.89 115.61 210.77 116.04 210.66 116.48 210.57 116.92 210.49 117.36 210.43 117.8 210.38 118.24 210.35 118.69 210.33 119.16 210.32 119.62 210.33 120.12 210.36 120.64 210.39 121.2 210.45 121.78 210.51 122.41 210.59 123.07 210.68 123.76 210.78 124.4 210.88 124.99 210.96 125.52 211.03 125.99 211.08 126.41 211.12 126.76 211.14 127.05 211.16 127.31 211.16 128.58 211.16 128.75 210.9 129.04 210.44 129.32 209.97 129.59 209.49 129.85 209 130.1 208.49 130.35 207.96 130.59 207.43 130.81 206.88 131.03 206.32 131.25 205.75 131.45 205.16 131.64 204.56 131.83 203.94 132 203.33 132.16 202.71 132.31 202.08 132.44 201.45 132.57 200.81 132.68 200.16 132.78 199.51 132.87 198.85 132.95 198.18 133.02 197.51 133.07 196.83 133.11 196.15 133.14 195.45 133.16 194.75 133.17 194.05 133.16 193.41 133.14 192.79 133.12 192.18 133.07 191.58 133.02 190.99 132.96 190.42 132.88 189.85 132.8 189.3 132.7 188.76 132.59 188.23 132.47 187.72 132.34 187.21 132.21 186.71 132.06 186.23 131.9 185.76 131.72 185.29 131.55 184.84 131.36 184.42 131.18 184.02 130.98 183.63 130.78 183.27 130.58 182.93 130.37 182.6 130.16 182.3 129.94 182.01 129.72 181.74 129.5 181.49 129.27 181.25 129.04 181.03 128.81 180.82 128.57 180.62 128.41 180.51 127.64 180.05 126.77 179.53 125.95 179.03 125.18 178.57 124.47 178.14 123.82 177.74 123.22 177.37 122.67 177.03 122.17 176.72 122.06 176.65 121.81 176.75 121.3 176.93 120.78 177.09 120.25 177.23 119.72 177.36 119.19 177.47 118.65 177.56 118.11 177.64 117.56 177.7 117.01 177.74 116.45 177.77 115.91 177.78 115.35 177.77 114.8 177.75 114.26 177.72 113.71 177.68 113.16 177.63 112.62 177.57 112.08 177.49 111.53 177.41 110.99 177.31 110.44 177.2 109.91 177.08 109.37 176.95 108.83 176.81 108.29 176.65 107.75 176.49 107.21 176.31 106.67 176.13 106.14 175.93 105.61 175.72 105.08 175.49 104.55 175.26 104.03 175.01 103.52 174.76 103 174.5 102.48 174.22 101.98 173.93 101.48 173.63 100.98 173.32 100.48 173 99.99 172.67 99.51 172.33 99.05 172 98.73 171.77 98.43 171.56 98.13 171.36 97.83 171.16 97.54 170.97 97.25 170.79 96.95 170.62 96.66 170.45 96.36 170.29 96.07 170.13 95.79 169.99 95.5 169.85 95.21 169.71 94.93 169.59 94.65 169.46 94.36 169.35 94.08 169.24 93.81 169.14 93.55 169.05 93.28 168.97 93.03 168.89 92.79 168.82 92.55 168.76 92.31 168.71 92.09 168.66 91.87 168.62 91.66 168.59 91.46 168.56 91.27 168.54 91.08 168.53 90.9 168.52 90.73 168.52 90.55 168.53 90.39 168.53 90.22 168.55 90.06 168.57 89.91 168.6 89.75 168.64 89.59 168.68 89.44 168.74 89.28 168.79 89.12 168.86 88.96 168.93 88.8 169.02 88.63 169.11 88.46 169.21 88.29 169.33 84.33 172.15 82.29 167.79 82.2 167.59 82.11 167.38 82.01 167.16 81.92 166.94 81.84 166.73 81.76 166.52 81.67 166.28 81.57 166 81.48 165.72 81.41 165.43 81.33 165.11 81.28 164.8 81.23 164.47 81.2 164.13 81.19 163.78 81.2 163.16 81.25 162.56 81.33 161.96 81.43 161.37 81.56 160.78 81.72 160.2 81.91 159.62 82.12 159.05 82.36 158.49 82.61 157.94 82.89 157.4 83.2 156.86 83.52 156.33 83.86 155.8 84.23 155.29 84.61 154.77 85.02 154.27 85.43 153.77 85.87 153.28 86.32 152.81 86.78 152.34 87.26 151.88 87.5 151.66 87.19 151.44 86.62 151 86.05 150.55 85.48 150.08 84.94 149.59 84.4 149.09 83.86 148.57 83.34 148.03 82.83 147.49 82.33 146.92 81.83 146.34 81.35 145.74 80.88 145.13 80.42 144.5 79.96 143.86 79.51 143.19 79.08 142.52 78.65 141.84 78.23 141.13 77.82 140.41 77.42 139.69 77.03 138.94 76.65 138.18 76.27 137.4 75.91 136.62 75.56 135.84 75.23 135.04 74.9 134.24 74.59 133.43 74.29 132.61 74 131.79 73.72 130.96 73.46 130.12 73.2 129.27 72.96 128.42 72.73 127.56 72.52 126.69 72.31 125.82 72.12 124.94 71.94 124.05 71.77 123.16 71.61 122.25 71.47 121.34 71.33 120.43 71.21 119.51 71.1 118.58 71 117.64 70.92 116.7 70.84 115.75 70.78 114.79 70.72 113.83 70.69 112.86 70.66 111.89 70.64 110.9 70.63 109.93 70.63 109.39 70.62 108.88 70.61 108.36 70.6 107.84 70.58 107.33 70.55 106.83 70.52 106.32 70.49 105.82 70.45 105.32 70.4 104.82 70.36 104.33 70.3 103.83 70.25 103.34 70.19 102.86 70.12 102.37 70.05 101.89 69.97 101.4 69.89 100.93 69.81 100.45 69.72 99.98 69.63 99.51 69.53 99.04 69.43 98.58 69.32 98.11 69.21 97.65 69.1 97.19 68.98 96.74 68.85 96.28 68.72 95.83 68.59 95.38 68.45 94.94 68.31 94.5 68.01 93.61 67.7 92.74 67.38 91.89 67.03 91.05 66.67 90.22 66.3 89.42 65.92 88.62 65.51 87.84 65.09 87.07 64.66 86.32 64.22 85.59 63.75 84.86 63.28 84.15 62.78 83.46 62.28 82.77 59.33 79 62.68 76.28 63.13 75.96 63.6 75.66 64.08 75.4 64.58 75.16 65.09 74.94 65.6 74.75 66.12 74.59 66.64 74.45 67.16 74.34 67.69 74.24 68.22 74.16 68.77 74.1 69.31 74.06 69.86 74.03 70.4 74.03 71.02 74.03 71.62 74.05 72.23 74.07 72.83 74.11 73.43 74.16 74.03 74.22 74.64 74.29 75.23 74.37 75.83 74.46 76.43 74.56 77.02 74.67 77.61 74.8 78.21 74.93 78.8 75.07 79.39 75.23 79.98 75.39 80.56 75.57 81.15 75.76 81.73 75.95 82.31 76.16 82.89 76.38 83.47 76.6 84.06 76.84 84.63 77.09 85.2 77.35 85.77 77.62 86.34 77.9 86.91 78.19 87.48 78.48 88.04 78.79 88.61 79.11 89.17 79.44 89.72 79.77 90.28 80.12 90.83 80.48 91.37 80.84 91.91 81.21 92.45 81.59 92.97 81.98 93.5 82.37 94.01 82.78 94.53 83.19 95.04 83.61 95.54 84.04 95.87 84.33 95.86 84.31 95.62 83.9 95.37 83.48 95.1 83.06 94.83 82.63 94.55 82.2 94.25 81.77 93.94 81.34 93.63 80.9 93.3 80.46 93.3 80.46"/><path class="cls-2" d="M121.58,221a25.28,25.28,0,0,1-6.41-.67c-1.68-.45-2.52-1.07-2.52-1.85a3.57,3.57,0,0,1,1.87-2.95,8.06,8.06,0,0,1,4.63-1.26,30.23,30.23,0,0,1,4.06.42,30.08,30.08,0,0,0,4.06.42h3.25a28.5,28.5,0,0,0,4.79-9.34,39.24,39.24,0,0,0,1.7-11.69,28.48,28.48,0,0,0-1.7-10.18,14.06,14.06,0,0,0-4.79-6.65q-7.64-4.54-8.13-5.05a12.36,12.36,0,0,1-3.08,1.27,13.61,13.61,0,0,1-3.41.42,23.09,23.09,0,0,1-7.48-1.27,25.89,25.89,0,0,1-7.14-3.78,24.84,24.84,0,0,0-5.52-3.11,13.81,13.81,0,0,0-5-1.1,7.66,7.66,0,0,0-2.52.42,8.81,8.81,0,0,0-2.35,1.26,12,12,0,0,1-.57-1.34,3.62,3.62,0,0,1-.25-1.18,10.82,10.82,0,0,1,2.6-6.56,25,25,0,0,1,7.15-6.06q-9.09-3.36-14.7-14.72t-5.6-26.51A53.47,53.47,0,0,0,72,93.26a42.75,42.75,0,0,0-7.23-13.63,6.36,6.36,0,0,1,2.44-1.27,11.74,11.74,0,0,1,3.25-.42,32.53,32.53,0,0,1,16.81,4.88,44,44,0,0,1,14,13.63,21.87,21.87,0,0,0,.81-5,16.43,16.43,0,0,0-1.7-6.74,37.62,37.62,0,0,0-4.8-7.57,9.86,9.86,0,0,1,1.46-.59,6,6,0,0,1,1.79-.25A28.32,28.32,0,0,1,115,81.65a42.19,42.19,0,0,1,13.08,14.8Q132.29,87,141.89,72.9q5.19,6.39,11.36,20.19a47.09,47.09,0,0,1,11.21-11.87,31.25,31.25,0,0,1,13.16-5.8,12.31,12.31,0,0,1,2.52.25c.81.17,1.59.37,2.35.59a36.54,36.54,0,0,0-3,7,22,22,0,0,0-1.06,6.48,31.07,31.07,0,0,0,.81,7.57,40,40,0,0,1,13.08-14.13,30.67,30.67,0,0,1,17-5.22,11.74,11.74,0,0,1,3.25.42A6.36,6.36,0,0,1,215,79.63a33.25,33.25,0,0,0-6.58,9.67A25.78,25.78,0,0,0,206,99.82q0,3,.41,8.83t.41,8.84a43.73,43.73,0,0,1-4.06,18.42,45,45,0,0,1-11.37,15.23,20.78,20.78,0,0,1,5.36,5.64,11.57,11.57,0,0,1,1.94,6.14,12.15,12.15,0,0,1-.81,3.36c-2.27-1.68-3.9-2.52-4.87-2.52a12.31,12.31,0,0,0-5,1.26,21.65,21.65,0,0,0-5.52,3.79,24,24,0,0,1-7.06,4.37,20.43,20.43,0,0,1-7.56,1.52,28.65,28.65,0,0,1-5.28-.42,11.73,11.73,0,0,1-3.65-1.26,15.23,15.23,0,0,0-8.77,4.79,12.56,12.56,0,0,0-3.41,8.67A100,100,0,0,1,145.3,205q-1.47,7.56-4.23,10.93l8.12-.84a1.51,1.51,0,0,1,1.14.51,1.62,1.62,0,0,1,.49,1.18,3,3,0,0,1-1.22,2.35,4.33,4.33,0,0,1-2.84,1h-5.69A3.12,3.12,0,0,1,139,219a10,10,0,0,1-2-3q2.76-2.85,4.23-10.09a91.35,91.35,0,0,0,1.46-17.67A1.46,1.46,0,0,0,142,187a3,3,0,0,0-1.71-.5v5.89q0,14.81-4.55,21.7T121.58,221Z"/><path class="cls-3" d="M178.43,152q8.77,0,16.16-10.6a39.47,39.47,0,0,0,7.39-23q0-3-.4-8.84t-.41-8.83a27.2,27.2,0,0,1,1.87-10,25.33,25.33,0,0,1,5.44-8.5,25.53,25.53,0,0,0-15.75,5.72,39.51,39.51,0,0,0-11.86,15.31,90,90,0,0,1,3.25,21.88A39.3,39.3,0,0,1,181.36,140a29,29,0,0,1-7.8,11.19c.76.23,1.54.42,2.35.59a12.38,12.38,0,0,0,2.52.25Z"/><path class="cls-3" d="M157.32,154.51a23.28,23.28,0,0,0,16.16-8.59,27.43,27.43,0,0,0,6.58-18.34q0-12.45-2.44-19.35-3.26-12.62-3.25-16.82A21.69,21.69,0,0,1,175,86a22,22,0,0,1,1.79-4.71,22,22,0,0,0-11.62,4.8,36.55,36.55,0,0,0-9.5,11.18,82,82,0,0,1,7.23,17.76,69.19,69.19,0,0,1,2.52,18.42,27.19,27.19,0,0,1-2.11,9.76,61.78,61.78,0,0,1-6,11.28Z"/><path class="cls-3" d="M103.71,148.62a14,14,0,0,0,4.88-.84,34.88,34.88,0,0,1-7.8-13.8A61.88,61.88,0,0,1,98,115a94.77,94.77,0,0,1,1.62-14.3,45.58,45.58,0,0,0-13.15-13A28.31,28.31,0,0,0,71.23,83q3.9,4.89,6,13.29a80.59,80.59,0,0,1,2.11,19.52A37.07,37.07,0,0,0,87,138.27q7.63,10.35,16.73,10.35Z"/><path class="cls-3" d="M124.83,152.82a30.34,30.34,0,0,1-5.44-10.43,44.17,44.17,0,0,1-1.87-13.12,49.4,49.4,0,0,1,1.87-12.71,104,104,0,0,1,5.44-15.06,60.39,60.39,0,0,0-11-14.47q-5.94-5.55-11.78-6.56a13.41,13.41,0,0,1,3,5.3,24,24,0,0,1,1.05,7.32,42.06,42.06,0,0,1-1.62,10.09q-1.64,4.54-1.63,14.31a42.45,42.45,0,0,0,6.09,22.8q6.09,9.84,15.84,12.53Z"/><path class="cls-3" d="M141.89,156.19q7.79,0,13.23-6.9a26.06,26.06,0,0,0,5.44-16.66,72.1,72.1,0,0,0-4.79-24.73,123.07,123.07,0,0,0-13.88-26.59,148.21,148.21,0,0,0-15.11,27.6q-5.2,12.95-5.2,22.88A26.17,26.17,0,0,0,127.51,149q5.92,7.16,14.38,7.15Z"/><path class="cls-4" d="M168.69,170.49a14.3,14.3,0,0,0,5.68-1.26,20.53,20.53,0,0,0,5.69-3.79,24.82,24.82,0,0,1,6.82-4.2,11.21,11.21,0,0,1,6.17-.84,10.39,10.39,0,0,0-2.76-4.3,5.58,5.58,0,0,0-3.74-1.59Q177.46,157,175.18,157a23,23,0,0,1-7.31-.84,13.61,13.61,0,0,0-3.41.42,12.33,12.33,0,0,0-3.08,1.26,7,7,0,0,1,1.21,2.27,8.77,8.77,0,0,1,.41,2.78,16.07,16.07,0,0,1-.41,3.87,8.57,8.57,0,0,1-1.21,2.86,21.51,21.51,0,0,0,2.92.59,31.83,31.83,0,0,0,4.39.25Z"/><path class="cls-4" d="M115.9,169.65a14,14,0,0,0,4.87-.84,21.7,21.7,0,0,1-.81-6.73,5.58,5.58,0,0,1,.81-2.36,23,23,0,0,1,2.44-3.53A34.93,34.93,0,0,1,112.65,152a28.43,28.43,0,0,1-4.47,1.26,23.68,23.68,0,0,1-4.47.42,26.43,26.43,0,0,0-4.06-.84,24.17,24.17,0,0,0-6,4,10.38,10.38,0,0,0-2.92,4.38,9,9,0,0,1,6.09.08,19.07,19.07,0,0,1,6.9,4.12,22.47,22.47,0,0,0,5.93,3.12,19.06,19.06,0,0,0,6.26,1.09Z"/><path class="cls-4" d="M141.89,181.43a3.14,3.14,0,0,0,2.11-1.18,10.42,10.42,0,0,0,1.95-3,7.56,7.56,0,0,1,2.19-3.11,15.8,15.8,0,0,1,4.3-2.78,9.42,9.42,0,0,0,4.71-2.94,7,7,0,0,0,1.79-4.63,7.36,7.36,0,0,0-.89-3.62,5.21,5.21,0,0,0-2.36-2.27,36.6,36.6,0,0,1-13,2.53,41,41,0,0,1-14.62-2.53,5,5,0,0,0-2.36,2.53,9.6,9.6,0,0,0-.89,4.2,6.92,6.92,0,0,0,1.06,3.62,9.94,9.94,0,0,0,3,3.11q6.5,3.87,8.12,6.73a7,7,0,0,0,2.11,2.44,4.68,4.68,0,0,0,2.77.93Z"/><path class="cls-1" d="M123.21,218.45a2.64,2.64,0,0,0,1.7-.59,1.77,1.77,0,0,0,.73-1.43,3.6,3.6,0,0,1-1.38.5,9.43,9.43,0,0,1-1.87.17h-4.87a.59.59,0,0,0-.65.67c0,.45.22.68.65.68Z"/><path class="cls-1" d="M135.38,223.05v0l.08-.46.15-.44.2-.42.24-.39.28-.35.32-.31.33-.29.36-.26.38-.22.4-.19.41-.16.42-.12.43-.09.43,0h8.1l.34,0,.34.06.34.08.33.11.32.14.31.16.29.19.29.21.26.25.26.27.22.32.19.35.14.39.08.41,0,.44-.08.64-.22.65-.35.55-.2.23h0l.53-.06.54,0h.5l1.26-.06-.22-.11-.72-.64-.31-1,0-.7.09-.46.14-.44.2-.42.25-.39.28-.35.31-.32.17-.14,0,0-.35-.17-.34-.19-.32-.21-.3-.26-.29-.3-.26-.37-.2-.41-.14-.47,0-.5.07-.63.19-.61.3-.55.38-.47.43-.38.47-.32.51-.27.52-.22.29-.11.29-.09.29-.08.3-.08.3-.07.31-.06.32-.06.33,0,.33,0,.34,0,.35,0,.35,0,.36,0h1.75l.59,0,.57.06.55.09.53.11.5.15.49.18.47.21.44.26.41.3.39.35.33.41.28.47.2.51.12.54,0,.53,0,.4-.06.39-.11.39-.17.38-.14.24.21.06.33.11.32.14.31.16.3.19.28.21.27.25.25.27.22.32.19.35.14.39.09.4,0,.39,0,.35,0,.33-.08.33-.11.32-.14.3-.17.28L168,224l-.22.24-.23.22-.25.2-.27.17-.29.15-.31.12-.31.08-.32.05-.28,0h-2.34l.28.19.31.25.29.31.26.36.2.42.14.47,0,.53-.09.71-.29.69-.41.56-.49.43-.53.35-.57.28-.62.24-.66.2-.36.1-.36.08-.37.08-.38.07-.4.07-.4.06-.42.05-.42,0-.44,0-.45,0-.46,0-.47,0-.48,0-.5,0h-2.48l-.34,0h-.34l-.32,0-.32,0-.32,0-.3,0-.3,0-.29,0-.28,0-.28,0-.26-.06-.28-.06-.51-.13-.49-.17-.46-.21-.45-.27-.42-.36,0,0-.24.21-.49.3-.52.23-.56.2-.58.16-.31.07-.31.06-.31.06-.32,0-.32.05-.33,0-.34,0-.35,0-.35,0-.35,0-.37,0h-.37l-.38,0H138l-.56,0-.54,0-.52-.05-.5-.07-.47-.08-.45-.11-.44-.12-.42-.16-.41-.19-.4-.25-.38-.31-.34-.4-.28-.48-.17-.54-.06-.54,0-.44.08-.41.15-.38.06-.12-.33.13-.46.14-.47.11-.48.07-.49.05h-1l-.28,0-.31,0-.34,0,.12.13.25.4.19.49.06.53-.06.65-.19.61-.3.55-.38.47-.44.38-.47.32-.5.27-.53.22-.29.1-.29.1-.29.08-.29.08-.31.07-.31.06-.32.06-.33.05-.33,0-.34,0-.34,0-.36,0h-.36l-.37,0h-1.88l-.36,0-.35,0-.34,0-.34,0-.33,0-.32,0-.31,0-.31-.06-.3-.06-.29-.06-.29-.08-.28-.07-.28-.09-.52-.19-.5-.23-.46-.27-.44-.34-.4-.42-.33-.52-.22-.61-.07-.65.06-.57.19-.52.27-.44.31-.35.34-.28.35-.23.36-.2.39-.18.39-.15-.09,0-.24-.09-.22-.12-.21-.13-.17-.14-.18-.16L114,226l-.14-.19-.12-.21-.12-.23-.08-.24-.06-.25,0-.25v-.31l.06-.51.18-.52.27-.44.31-.35.34-.29.35-.23.36-.2.39-.17.4-.15.41-.13.42-.11.42-.09.44-.06.45-.05.45,0h.75l.28,0,.29,0,.3.06.31.07.33.08.34.1.35.1.32.09.28.08.25.06.22.05.18,0,.15,0h.46l.33,0,.38-.05.43-.08.47-.11.52-.13.56-.16.61-.19.65-.21.64-.18.6-.16.58-.13.55-.1.53-.08.5,0,.49,0h.34l.35,0,.34.06.33.08.33.11.33.14.31.17.29.18.28.22.27.24.25.27.23.32.18.35.15.39.07.37Zm-.51,2.28.3-.08.34-.06.35,0H136l-.32-.38-.27-.59-.06-.33V224l-.12.5-.19.48-.2.33Z"/><path class="cls-5" d="M124,226.52a19.09,19.09,0,0,1-4.06-.67,19.19,19.19,0,0,0-4.06-.67.79.79,0,0,1-.57-.25.85.85,0,0,1-.25-.59c0-.45.41-.84,1.22-1.18a7.33,7.33,0,0,1,2.85-.51,7.92,7.92,0,0,1,2,.42,7.54,7.54,0,0,0,2,.43,14.06,14.06,0,0,0,4.06-.85,14.19,14.19,0,0,1,4.06-.84,2.87,2.87,0,0,1,1.7.51,1.42,1.42,0,0,1,.73,1.18,2.11,2.11,0,0,1-1.21,1.76,5.26,5.26,0,0,1-2.85.76,22.63,22.63,0,0,0-2.84.25,22.48,22.48,0,0,1-2.84.25Zm-3.25,5.39a15.5,15.5,0,0,1-4.71-.59c-1.19-.39-1.79-.92-1.79-1.6,0-.45.41-.84,1.22-1.18a7.5,7.5,0,0,1,2.84-.5H124a5.71,5.71,0,0,1,2.27.42c.65.28,1,.59,1,.93,0,.78-.6,1.4-1.79,1.85a13.6,13.6,0,0,1-4.71.67Zm17.87-1.68a12.11,12.11,0,0,1-3.58-.42c-.86-.28-1.3-.71-1.3-1.27a1.43,1.43,0,0,1,.73-1.17,2.92,2.92,0,0,1,1.71-.51,7.92,7.92,0,0,0,2-.42,5.12,5.12,0,0,1,4.06,0,7.92,7.92,0,0,0,2,.42,1.71,1.71,0,0,1,1.14.42,1.24,1.24,0,0,1,.49.93c0,.67-.71,1.18-2.12,1.51a22.46,22.46,0,0,1-5.19.51Zm4.06-5a13.71,13.71,0,0,1-4.06-.51c-1.09-.33-1.63-.73-1.63-1.17a2.2,2.2,0,0,1,1-1.77,3.55,3.55,0,0,1,2.27-.76h7.31a2.92,2.92,0,0,1,1.71.51,1.44,1.44,0,0,1,.73,1.17c0,.79-.68,1.41-2,1.86a17.49,17.49,0,0,1-5.28.67Zm11.37,5a21.29,21.29,0,0,1-4.71-.42c-1.19-.28-1.79-.71-1.79-1.27s.49-1.06,1.46-1.51a8.07,8.07,0,0,1,3.41-.67l7.31-.34a5,5,0,0,1,2.28.5c.65.34,1,.73,1,1.18,0,.79-.81,1.4-2.44,1.85a25.1,25.1,0,0,1-6.49.68Zm4.06-6.73c-2.71,0-4.06-.28-4.06-.85a2.18,2.18,0,0,1,1-1.76,3.58,3.58,0,0,1,2.28-.76h7.31a2.92,2.92,0,0,1,1.7.51,1.4,1.4,0,0,1,.73,1.17,1.63,1.63,0,0,1-.49,1.18,1.51,1.51,0,0,1-1.13.51Zm-1.63-5.05a4.84,4.84,0,0,1-2.27-.51c-.65-.33-1-.73-1-1.17,0-.79.59-1.41,1.78-1.86a13.84,13.84,0,0,1,4.71-.67,8,8,0,0,1,3.58.67,2.07,2.07,0,0,1,1.3,1.86A1.41,1.41,0,0,1,164,218a3.29,3.29,0,0,1-1.79.42Z"/></svg>