<svg version="1.1" id="Layer_1" xmlns="http://www.w3.org/2000/svg" xmlns:xlink="http://www.w3.org/1999/xlink" x="0px" y="0px"
	 width="100%" viewBox="0 0 2816 1536" enable-background="new 0 0 2816 1536" xml:space="preserve">
  <!-- BJP Premium Structured Lotus (Transparent Background) -->
  <g id="lotus-center">
    <path fill="#473E52" opacity="1.000000" stroke="none" 
	d="
M867.030640,217.682343 
	C878.108765,218.960205 888.262939,220.360550 899.947021,222.003967 
	C922.172180,226.741425 941.828186,234.295898 961.247742,242.546509 
	C971.975403,248.815048 982.703064,255.083572 994.155396,261.508118 
	C994.880127,261.664154 994.940613,261.710724 995.248474,262.246155 
	C1006.197327,270.880829 1016.838257,278.980072 1027.808105,287.546875 
	C1029.898560,289.451080 1031.660156,290.887695 1033.741211,292.923035 
	C1041.837891,301.085907 1049.615479,308.650085 1057.654053,316.806824 
	C1059.916382,319.615784 1061.917603,321.832153 1064.146240,324.686707 
	C1070.524048,332.995697 1076.674561,340.666443 1082.825195,348.337158 
	C1083.532593,348.207153 1084.240112,348.077148 1084.947632,347.947113 
	C1085.590942,339.896637 1086.234253,331.846130 1087.096191,322.918945 
	C1086.618408,312.067017 1085.921875,302.091827 1085.282959,291.340149 
	C1082.314453,280.251282 1079.288208,269.938843 1076.201050,258.896088 
	C1070.914673,247.980606 1065.689209,237.795441 1060.307617,226.930328 
	C1056.662598,220.395081 1053.173584,214.539795 1049.388672,208.187622 
	C1062.366577,203.013992 1074.937378,202.288940 1087.504517,203.327454 
	C1099.725098,204.337311 1111.851318,206.489014 1124.612549,208.598984 
	C1135.438843,212.093323 1145.671875,215.128006 1156.393677,218.665924 
	C1178.593384,227.440414 1198.166138,239.609268 1217.755737,252.935059 
	C1221.312744,255.694000 1224.525757,257.892303 1228.056030,260.687225 
	C1236.275757,268.050201 1244.178345,274.816559 1252.329346,282.204773 
	C1255.786011,285.872894 1258.994019,288.919128 1262.413818,292.594299 
	C1269.718872,301.574188 1276.812134,309.925140 1284.044189,318.869629 
	C1285.484863,320.970245 1286.786743,322.477295 1288.235352,324.655945 
	C1292.506836,331.598602 1296.631592,337.869690 1301.608154,345.435699 
	C1306.042969,337.576080 1309.871704,330.790741 1314.121826,323.641541 
	C1315.103882,321.953003 1315.664429,320.628265 1316.855225,318.915283 
	C1322.402344,310.468231 1327.319092,302.409454 1332.803467,293.966431 
	C1348.104980,271.702942 1362.838989,249.823685 1378.048828,227.474899 
	C1379.949951,224.756271 1381.375244,222.507187 1383.343262,219.912384 
	C1389.549927,211.855423 1395.214233,204.144196 1401.374756,196.018951 
	C1405.250488,191.078598 1408.629883,186.552231 1412.619141,182.291687 
	C1416.849121,187.035828 1420.469482,191.514145 1424.257690,196.649979 
	C1430.930298,205.593170 1437.435059,213.878860 1444.077026,222.793640 
	C1446.038086,225.768616 1447.862061,228.114487 1449.883057,231.106750 
	C1464.025146,251.856094 1477.969971,271.959015 1492.077148,292.731567 
	C1497.356445,301.244537 1502.473511,309.087921 1507.757446,317.579102 
	C1511.434937,323.987061 1514.945557,329.747284 1518.366211,335.359955 
	C1529.948120,320.517334 1541.051514,306.287964 1552.764648,291.797272 
	C1559.577515,285.006409 1565.780396,278.476898 1572.606201,271.705414 
	C1583.501587,262.986542 1593.774170,254.509628 1604.713379,245.870026 
	C1613.024536,240.813965 1620.669067,235.920593 1628.934937,230.794113 
	C1631.802612,229.228638 1634.048950,227.896286 1637.006592,226.422668 
	C1647.862915,221.687149 1658.007690,217.092865 1668.942627,212.417816 
	C1687.158936,208.117493 1704.585205,203.897934 1722.753906,199.817291 
	C1724.989990,199.786240 1726.483398,199.616272 1728.890503,199.624664 
	C1741.193115,200.419205 1752.582031,201.035355 1764.547485,201.933167 
	C1769.889648,205.065765 1765.591675,207.357971 1764.365112,209.304901 
	C1754.420288,225.090485 1745.651489,241.375412 1740.965698,260.335236 
	C1738.573242,271.199432 1736.631958,281.473297 1734.450684,292.544464 
	C1734.296265,303.565765 1734.382202,313.789795 1734.354492,324.867249 
	C1735.013672,334.318817 1735.375854,342.994476 1738.834595,352.493164 
	C1746.385986,342.325684 1753.187988,333.167328 1760.501709,323.789154 
	C1762.069702,322.062286 1763.125977,320.555237 1764.786133,318.670135 
	C1772.908813,310.155853 1780.427368,302.019623 1788.556030,293.658203 
	C1792.225098,290.370728 1795.284058,287.308411 1798.958008,283.986084 
	C1818.141479,268.035004 1838.646851,255.270035 1860.677734,243.664459 
	C1881.380249,233.776382 1902.652344,227.629822 1924.845825,221.841400 
	C1946.242676,217.574265 1967.087036,217.315567 1988.750000,218.081451 
	C1999.562012,220.497833 2009.604858,222.640762 2020.139648,225.188995 
	C2023.034058,226.427322 2025.436279,227.260300 2028.123901,228.814575 
	C2027.004639,232.298325 2025.898315,235.269531 2024.139282,237.784088 
	C2018.898315,245.275864 2013.400879,252.588272 2007.360840,260.219513 
	C2000.573853,270.966553 1994.429321,281.464844 1988.009399,292.182648 
	C1987.734009,292.402130 1987.802002,293.103271 1987.253418,293.592041 
	C1982.582031,304.051147 1978.459106,314.021515 1973.950928,324.630371 
	C1970.643188,335.308380 1967.720825,345.347870 1964.497559,356.078094 
	C1962.342163,367.096588 1960.487671,377.424286 1958.391602,388.479736 
	C1957.069946,399.508423 1955.989868,409.809357 1954.686523,421.016174 
	C1953.135376,463.244354 1951.807495,504.566681 1950.252197,546.697754 
	C1948.770874,557.694092 1947.517090,567.881592 1946.003418,578.814148 
	C1943.698364,589.665894 1941.653320,599.772644 1939.162109,610.462280 
	C1935.951172,621.384399 1933.186523,631.723633 1930.091797,642.717651 
	C1920.815552,663.161865 1911.869385,682.951355 1902.451416,703.239807 
	C1897.862549,710.429321 1893.745483,717.119995 1889.046387,724.115967 
	C1886.158203,728.051453 1883.852173,731.681641 1880.984009,735.698730 
	C1864.679810,757.105286 1846.440674,775.678284 1825.153198,792.028992 
	C1822.282471,793.995911 1820.023682,795.797668 1817.330078,797.718994 
	C1816.279175,798.070679 1815.895874,798.507263 1815.192261,799.494263 
	C1815.016602,800.784180 1815.394043,801.728149 1816.118164,803.202271 
	C1819.580566,805.921509 1822.696289,808.110596 1826.107788,810.896667 
	C1836.691040,821.746826 1846.978394,831.999939 1857.477417,842.937256 
	C1861.318359,850.395752 1864.947632,857.169983 1868.670654,864.653687 
	C1876.236938,883.228027 1878.033936,901.422424 1872.625488,920.811646 
	C1867.892090,918.896301 1864.000122,917.321411 1859.651978,915.194458 
	C1849.268066,910.186768 1839.086792,906.907104 1827.096191,907.686584 
	C1814.839111,907.311096 1803.681152,908.330566 1792.568481,913.571167 
	C1783.835938,917.651917 1775.812134,921.638550 1767.107178,925.764771 
	C1763.134399,928.102783 1759.703857,930.120911 1756.573486,932.529114 
	C1737.708740,947.041504 1718.376099,960.815491 1696.152954,971.371948 
	C1686.279419,974.955872 1677.095581,978.367432 1667.093506,981.791382 
	C1636.815552,989.282959 1606.750488,991.004272 1577.575439,983.304993 
	C1560.646851,978.837463 1549.056519,983.033508 1536.984253,993.944336 
	C1524.687012,1000.525024 1513.034668,1006.898743 1501.453735,1013.399414 
	C1493.882080,1017.649658 1486.830322,1022.569580 1481.400513,1030.343262 
	C1475.671753,1038.994019 1470.540894,1047.352051 1464.920166,1056.256104 
	C1459.746582,1068.064331 1457.010376,1079.667236 1458.087036,1092.893066 
	C1457.847168,1109.193604 1457.794800,1124.571533 1457.461426,1140.744629 
	C1456.137207,1156.358154 1455.094238,1171.176392 1453.737061,1186.743408 
	C1450.449829,1203.012451 1447.476685,1218.532471 1444.224121,1234.640503 
	C1443.778076,1236.076660 1443.611572,1236.924805 1442.961304,1238.297119 
	C1436.695190,1252.390259 1430.912720,1265.959229 1424.742920,1280.437012 
	C1428.465210,1280.437012 1432.045410,1280.679443 1435.583008,1280.393555 
	C1448.469727,1279.352783 1461.378296,1278.430542 1474.204956,1276.861694 
	C1480.731934,1276.063110 1486.721802,1276.313232 1492.596436,1280.623291 
	C1499.387695,1295.255005 1493.919189,1305.849854 1478.907227,1308.015259 
	C1474.967163,1308.583618 1470.913696,1308.802368 1466.938843,1308.616333 
	C1448.651611,1307.759888 1430.373901,1306.703491 1411.597900,1305.295898 
	C1409.400879,1304.607544 1407.698853,1304.342163 1405.502563,1303.660400 
	C1403.387207,1302.704346 1401.766113,1302.164917 1399.725342,1301.071533 
	C1390.998901,1295.900391 1390.680054,1288.148926 1391.538452,1279.344971 
	C1392.550415,1275.784912 1393.295044,1272.920166 1394.570679,1269.579468 
	C1398.891724,1261.663696 1402.925903,1254.335205 1406.387817,1246.745850 
	C1408.812500,1241.430786 1410.455933,1235.759155 1412.918335,1229.673950 
	C1416.058716,1214.743408 1418.729126,1200.385864 1421.639282,1185.220459 
	C1423.031494,1171.592896 1424.183838,1158.773071 1425.516602,1145.039917 
	C1425.713379,1134.757568 1425.729736,1125.388550 1425.925049,1115.178223 
	C1425.941406,1110.913818 1425.778809,1107.491089 1425.732422,1103.267700 
	C1424.709106,1097.693848 1424.212524,1092.635132 1422.255127,1088.224731 
	C1420.138916,1083.456543 1414.793091,1081.516724 1410.626465,1082.870850 
	C1405.890625,1084.409912 1403.897949,1087.913208 1404.000977,1092.760742 
	C1404.064331,1095.741577 1404.127075,1098.722412 1404.177612,1101.703491 
	C1404.452148,1117.919067 1405.124634,1134.141235 1404.861450,1150.348145 
	C1404.668457,1162.237915 1403.246826,1174.107788 1402.110229,1186.737793 
	C1399.187500,1198.803223 1397.191040,1210.324341 1393.741333,1221.392578 
	C1383.699585,1253.609985 1369.720703,1283.351807 1338.364014,1301.734497 
	C1324.598022,1306.342407 1311.522339,1310.815063 1297.674316,1315.269775 
	C1270.878540,1319.628052 1245.129150,1319.617554 1219.354980,1310.059082 
	C1217.594116,1309.086670 1216.443726,1308.472900 1215.263306,1307.923706 
	C1205.969238,1303.599243 1202.222046,1295.933960 1209.236816,1285.579224 
	C1209.781250,1284.775513 1210.150146,1283.852783 1211.173096,1282.603027 
	C1217.810059,1275.677856 1225.419922,1271.866699 1233.892944,1269.454956 
	C1249.521362,1265.006958 1265.379883,1264.935791 1281.341431,1266.788086 
	C1289.573364,1267.743164 1297.784546,1268.878296 1306.746948,1270.270996 
	C1320.183105,1274.660400 1330.494019,1271.107788 1338.666260,1260.804565 
	C1339.866211,1259.291382 1340.954834,1257.689819 1342.695557,1255.826172 
	C1347.566650,1248.360962 1351.837280,1241.198853 1356.621216,1233.537842 
	C1363.851196,1218.019897 1368.711060,1202.454956 1371.227783,1185.647217 
	C1371.524414,1184.086304 1371.530151,1182.993286 1371.705322,1181.452881 
	C1371.874878,1181.005249 1371.705200,1180.063232 1372.002930,1179.296631 
	C1372.890869,1172.366211 1373.481079,1166.202515 1374.381348,1159.322510 
	C1374.958862,1153.750732 1375.226318,1148.895142 1375.683716,1143.291748 
	C1375.787354,1141.014648 1375.701050,1139.485352 1375.772095,1137.039917 
	C1376.047241,1121.287720 1376.992065,1106.380127 1372.160522,1091.173584 
	C1369.987671,1078.279053 1366.679688,1066.557983 1360.272705,1055.151733 
	C1354.415405,1046.759644 1348.681763,1039.072144 1342.602783,1030.845947 
	C1339.278809,1028.120972 1336.300415,1025.935059 1332.937012,1023.122070 
	C1316.444702,1012.907410 1300.337158,1003.319763 1283.876831,993.161133 
	C1278.084961,988.840454 1272.378052,985.418091 1267.282349,981.248596 
	C1262.221191,977.107300 1257.419922,976.409302 1251.214600,980.045471 
	C1233.924561,984.482788 1217.112915,987.693054 1200.078979,985.939636 
	C1185.272217,984.415527 1170.663086,980.971008 1155.329590,978.005737 
	C1144.504395,973.634277 1134.316040,969.632202 1123.707764,965.092407 
	C1107.185425,954.775818 1091.014648,945.107422 1075.000732,935.185730 
	C1060.098755,925.953125 1045.349609,916.480164 1027.256104,912.045898 
	C1016.618896,908.410461 1006.458191,907.190979 995.195801,908.092651 
	C983.580811,908.284668 973.352966,910.614014 963.312500,916.249146 
	C959.951172,917.372498 957.292725,918.456543 953.148926,920.146179 
	C952.591064,911.514343 952.091248,903.781006 951.818665,895.243408 
	C954.627625,884.284607 957.209412,874.129944 960.193481,863.454407 
	C961.830200,860.147583 963.064636,857.361633 964.849121,854.162354 
	C970.256348,846.503235 975.113464,839.257446 980.558105,831.700073 
	C986.110596,826.270386 991.075623,821.152222 996.676331,815.828430 
	C1001.574219,811.833984 1005.836426,808.045227 1010.837769,804.171997 
	C1015.105713,802.407776 1018.634521,800.728027 1023.496094,798.413818 
	C1014.289246,792.870300 1006.496948,788.178467 998.315063,782.924805 
	C978.578796,768.998657 961.765991,752.875671 946.027771,734.626343 
	C941.174988,728.315552 936.764893,722.479065 932.334717,716.008240 
	C929.756897,711.536255 927.199219,707.698608 924.429565,703.176514 
	C914.701843,682.342163 905.186096,662.192383 895.625488,641.309570 
	C892.234741,630.367859 888.888794,620.159241 885.559082,609.183105 
	C883.036926,598.283691 880.498535,588.151794 878.034912,577.156921 
	C876.606445,566.164551 875.103149,556.035156 873.680298,545.023438 
	C873.107666,532.608582 872.369080,521.080139 871.822388,509.542633 
	C871.072754,493.721588 870.468689,477.893616 869.986145,461.235657 
	C869.958496,457.582855 869.746887,454.762970 869.644104,451.081421 
	C868.639099,429.292725 867.254211,408.398987 862.192993,387.125031 
	C860.105530,376.182770 857.945801,366.080231 855.831299,355.204407 
	C852.596741,344.286957 849.316956,334.142792 846.024048,323.233276 
	C842.788818,314.773102 839.566833,307.078247 836.260620,298.768738 
	C835.080688,295.971100 833.984985,293.788177 832.715027,290.902283 
	C829.938293,285.207306 827.739014,279.949432 824.656494,275.273895 
	C815.909668,262.006805 806.810547,248.971832 797.828491,235.860291 
	C796.223389,233.517151 793.251038,231.408569 797.506165,228.315247 
	C800.074158,227.322678 802.008789,226.433868 803.943481,225.545044 
	C814.157166,223.313583 824.370789,221.082123 835.279297,218.491486 
	C846.018311,218.023132 856.062500,217.913986 867.030640,217.682343 
M1395.076538,842.684021 
	C1408.346680,844.703552 1421.577637,844.494263 1434.893677,842.736023 
	C1459.577881,839.476929 1481.711670,830.393799 1501.397339,815.135498 
	C1514.673950,804.844910 1525.637329,792.545105 1535.506104,778.975281 
	C1558.011841,748.029419 1570.883789,713.477966 1574.678589,675.626648 
	C1577.138672,651.087891 1576.158936,626.539978 1573.351807,601.959900 
	C1569.485474,568.106323 1562.543579,534.973633 1552.106079,502.618713 
	C1536.844360,455.310120 1517.719360,409.766266 1492.877319,366.444641 
	C1474.798218,334.916473 1455.344238,304.385895 1435.120361,274.275543 
	C1430.674805,267.656891 1425.852539,261.277771 1420.969604,254.969711 
	C1414.659180,246.817581 1411.467529,247.030624 1405.096558,255.642105 
	C1404.899048,255.909103 1404.755615,256.215668 1404.565063,256.488342 
	C1394.660767,270.654999 1384.535767,284.673248 1374.893066,299.015778 
	C1355.190796,328.320648 1336.459229,358.274109 1321.061157,390.072662 
	C1308.010986,417.022217 1295.421631,444.258575 1284.109863,471.972656 
	C1261.277710,527.912415 1247.733154,585.797485 1248.573608,646.792542 
	C1249.160034,689.364075 1258.480469,729.179077 1279.987793,765.995544 
	C1288.439941,780.463867 1298.877319,793.485291 1311.209717,804.725830 
	C1334.492798,825.947266 1361.890137,838.718262 1395.076538,842.684021 
M1914.784180,455.012207 
	C1914.857910,427.331787 1917.032349,399.857086 1922.550659,372.682526 
	C1930.547119,333.303528 1941.614624,295.131653 1965.235229,261.762939 
	C1966.648682,259.765930 1967.484985,257.360260 1968.643677,255.036804 
	C1961.828369,252.699646 1956.327148,252.133148 1948.388550,253.266525 
	C1910.584839,258.663879 1875.350586,270.769226 1844.434570,293.789886 
	C1826.234375,307.341919 1809.146240,322.200378 1795.296997,340.290253 
	C1781.363403,358.490143 1768.015991,377.138916 1754.416748,395.594849 
	C1751.655884,399.341644 1751.403198,403.201477 1752.541382,407.824219 
	C1756.667480,424.583954 1760.901245,441.355713 1763.986328,458.324402 
	C1768.740479,484.473724 1772.258667,510.834961 1772.961548,537.462463 
	C1773.612061,562.099792 1772.342407,586.604431 1769.433960,611.141602 
	C1765.508911,644.253723 1755.598389,675.461731 1742.236694,705.703979 
	C1728.506592,736.780151 1709.249878,764.159058 1685.274902,788.238586 
	C1683.566406,789.954285 1682.445435,792.254822 1679.873901,795.996826 
	C1686.717407,797.080078 1691.788574,798.403442 1696.905029,798.610718 
	C1739.192871,800.323425 1776.198242,785.988159 1808.287354,759.426758 
	C1839.510010,733.582581 1862.055542,700.680969 1880.351074,664.753296 
	C1901.453003,623.315002 1909.183350,578.489685 1912.665771,532.849915 
	C1914.587524,507.662506 1914.146484,482.294830 1914.784180,455.012207 
M1087.717773,703.603455 
	C1083.621704,693.770569 1078.668457,684.199402 1075.573853,674.060913 
	C1059.630981,621.829224 1051.267456,568.645935 1054.250854,513.723389 
	C1056.243164,477.045288 1060.630371,440.841248 1069.283569,405.202667 
	C1071.134766,397.578705 1069.871216,391.530640 1065.476685,385.616730 
	C1046.229858,359.714813 1026.720581,334.177063 1001.778015,313.130371 
	C968.189697,284.788330 930.127441,266.229218 887.177307,257.624207 
	C879.720459,256.130249 871.975769,255.578247 864.357849,255.528656 
	C857.396179,255.483368 855.737854,258.990417 858.795227,265.375092 
	C859.368591,266.572388 860.205994,267.643250 860.779602,268.840393 
	C867.531616,282.932983 875.248962,296.659363 880.808594,311.209503 
	C899.875916,361.110748 908.523376,413.071289 908.814392,466.395538 
	C908.999695,500.350494 909.511230,534.288940 915.258423,567.826111 
	C921.192566,602.454407 931.619324,635.681824 948.280823,666.833374 
	C969.792542,707.053284 998.924255,740.019287 1038.724365,762.938293 
	C1066.697754,779.046875 1096.898315,785.444092 1129.025391,782.961609 
	C1132.418823,782.699341 1135.791016,782.252441 1136.703735,776.609192 
	C1116.316895,756.299805 1100.633423,731.755676 1087.717773,703.603455 
M1234.457764,320.730133 
	C1216.062744,300.983337 1197.599976,281.309662 1173.956787,267.536621 
	C1155.811401,256.966248 1137.433716,246.893967 1116.660767,242.316696 
	C1113.955444,241.720581 1111.119019,241.718414 1106.520386,241.259003 
	C1108.625610,247.021927 1109.898560,251.057419 1111.548218,254.932571 
	C1121.691528,278.760986 1124.294312,303.813019 1122.519165,329.264099 
	C1120.455322,358.854248 1113.951416,387.756866 1107.316650,416.624207 
	C1100.692139,445.446838 1095.250488,474.598145 1093.506958,504.112061 
	C1091.445312,539.014526 1092.278931,573.935974 1098.651123,608.544922 
	C1110.057983,670.499146 1136.138916,724.799561 1182.235229,768.472534 
	C1203.839844,788.941284 1229.600708,802.717163 1257.905029,811.711609 
	C1259.862183,812.333435 1262.188721,811.792786 1266.213379,811.792786 
	C1263.769043,807.227905 1262.159424,803.813599 1260.190552,800.620728 
	C1253.912842,790.440002 1246.666748,780.763550 1241.295166,770.134033 
	C1223.511597,734.943481 1213.661133,697.371643 1211.292480,658.093018 
	C1209.018921,620.392761 1212.356934,583.046082 1220.494873,546.064636 
	C1232.218872,492.786682 1250.934326,442.054718 1274.789062,393.134308 
	C1277.745850,387.070740 1277.660400,381.837830 1273.968628,376.282898 
	C1261.644653,357.738892 1250.293091,338.507568 1234.457764,320.730133 
M1467.085205,997.988342 
	C1474.872070,992.942871 1482.497314,987.623108 1490.486084,982.920410 
	C1500.784668,976.857910 1511.889893,972.048462 1521.734863,965.356445 
	C1544.714355,949.736389 1555.688354,927.468018 1553.850464,899.724915 
	C1552.770508,883.423828 1544.668823,870.022766 1532.330566,859.467102 
	C1527.020874,854.924561 1521.297607,853.363831 1514.203613,857.597229 
	C1501.029297,865.458923 1486.820312,871.199219 1471.598389,873.928955 
	C1462.481689,875.564026 1453.326416,877.010193 1444.156250,878.315063 
	C1420.626709,881.663391 1397.113647,880.760925 1373.804810,876.698242 
	C1351.512573,872.812683 1329.564697,867.441895 1309.741699,855.827881 
	C1305.091187,853.103271 1300.714600,853.609558 1296.729004,856.729431 
	C1281.146240,868.927612 1272.029419,885.156250 1272.399292,904.770386 
	C1272.778809,924.887756 1280.752197,942.870300 1294.713867,957.767822 
	C1304.880981,968.616455 1317.745239,975.544983 1330.670532,982.462952 
	C1345.604370,990.455994 1360.916016,998.158997 1372.113159,1011.371155 
	C1377.655518,1017.910889 1382.132446,1025.363770 1386.983643,1032.477051 
	C1400.116699,1051.733887 1428.443115,1051.472534 1440.079590,1031.566895 
	C1447.206055,1019.376160 1455.620117,1008.421570 1467.085205,997.988342 
M1158.848022,944.467224 
	C1180.089722,952.992798 1202.364014,953.238098 1224.620972,951.731140 
	C1231.739746,951.249207 1240.104614,951.674438 1246.086182,944.107483 
	C1238.871216,928.552551 1236.434692,911.847473 1238.289185,894.750977 
	C1240.141602,877.675476 1248.131226,862.762207 1257.459106,848.761780 
	C1256.157349,847.592163 1255.740479,846.919861 1255.173706,846.751160 
	C1229.575562,839.132507 1205.400024,828.181030 1181.719116,815.958008 
	C1178.871094,814.488037 1174.708130,814.675232 1171.350220,815.245544 
	C1159.935303,817.184265 1148.698242,820.678467 1137.227905,821.675659 
	C1114.927612,823.614441 1092.740601,821.639771 1071.192871,815.197632 
	C1064.954468,813.332458 1059.706421,814.282532 1053.942139,816.822754 
	C1034.200195,825.522766 1019.193115,840.111206 1005.469727,856.002197 
	C1000.553650,861.694824 994.905640,867.876709 994.307983,877.934753 
	C998.436157,877.934753 1001.958679,877.806091 1005.468689,877.961304 
	C1013.083435,878.297791 1020.800598,878.110657 1028.282104,879.328308 
	C1049.937134,882.852722 1069.336060,891.871399 1087.353271,904.330872 
	C1109.475952,919.629333 1131.700195,934.854492 1158.848022,944.467224 
M1747.934570,898.916504 
	C1760.473145,890.417480 1774.509888,885.353943 1788.797974,880.726685 
	C1803.242920,876.048645 1818.349854,879.385193 1832.814209,877.358521 
	C1832.989014,875.912109 1833.332031,875.155762 1833.103394,874.666565 
	C1822.740479,852.496826 1806.433472,835.962585 1784.880859,824.646301 
	C1778.832153,821.470398 1772.431152,821.196289 1765.584839,823.589294 
	C1754.941284,827.309631 1744.001465,830.208923 1733.125366,833.233582 
	C1699.391235,842.614868 1665.686646,842.773804 1631.911743,833.125854 
	C1628.422974,832.129272 1623.949707,832.609375 1620.481812,833.889771 
	C1611.142456,837.337952 1602.130249,841.662903 1592.928955,845.497742 
	C1586.634399,848.121155 1580.240479,850.506226 1572.703247,853.463989 
	C1581.053467,868.997009 1586.888550,883.999695 1587.943481,900.553467 
	C1589.002075,917.165222 1583.375732,932.451111 1578.384766,948.363708 
	C1582.527344,949.755798 1585.555542,951.216919 1588.741821,951.772827 
	C1610.884644,955.635559 1633.007812,955.616455 1655.006714,950.671082 
	C1679.875244,945.080811 1701.036499,931.999573 1721.484985,917.513428 
	C1729.882812,911.564209 1738.298096,905.639526 1747.934570,898.916504 
M1290.397705,1292.069336 
	C1291.733643,1291.524414 1293.069702,1290.979370 1294.405640,1290.434326 
	C1275.286133,1286.594116 1256.546265,1284.443848 1238.415283,1292.845825 
	C1255.344849,1299.227051 1272.150757,1297.136230 1290.397705,1292.069336 
z"/>
  </g>
  <g id="petal-layer-1">
    <path fill="#EF751E" opacity="1.000000" stroke="none" 
	d="
M1394.188599,842.609131 
	C1361.890137,838.718262 1334.492798,825.947266 1311.209717,804.725830 
	C1298.877319,793.485291 1288.439941,780.463867 1279.987793,765.995544 
	C1258.480469,729.179077 1249.160034,689.364075 1248.573608,646.792542 
	C1247.733154,585.797485 1261.277710,527.912415 1284.109863,471.972656 
	C1295.421631,444.258575 1308.010986,417.022217 1321.061157,390.072662 
	C1336.459229,358.274109 1355.190796,328.320648 1374.893066,299.015778 
	C1384.535767,284.673248 1394.660767,270.654999 1404.565063,256.488342 
	C1404.755615,256.215668 1404.899048,255.909103 1405.096558,255.642105 
	C1411.467529,247.030624 1414.659180,246.817581 1420.969604,254.969711 
	C1425.852539,261.277771 1430.674805,267.656891 1435.120361,274.275543 
	C1455.344238,304.385895 1474.798218,334.916473 1492.877319,366.444641 
	C1517.719360,409.766266 1536.844360,455.310120 1552.106079,502.618713 
	C1562.543579,534.973633 1569.485474,568.106323 1573.351807,601.959900 
	C1576.158936,626.539978 1577.138672,651.087891 1574.678589,675.626648 
	C1570.883789,713.477966 1558.011841,748.029419 1535.506104,778.975281 
	C1525.637329,792.545105 1514.673950,804.844910 1501.397339,815.135498 
	C1481.711670,830.393799 1459.577881,839.476929 1434.893677,842.736023 
	C1421.577637,844.494263 1408.346680,844.703552 1394.188599,842.609131 
z"/>
  </g>
  <g id="petal-layer-2">
    <path fill="#EF751E" opacity="1.000000" stroke="none" 
	d="
M1234.827148,321.336731 
	C1250.293091,338.507568 1261.644653,357.738892 1273.968628,376.282898 
	C1277.660400,381.837830 1277.745850,387.070740 1274.789062,393.134308 
	C1250.934326,442.054718 1232.218872,492.786682 1220.494873,546.064636 
	C1212.356934,583.046082 1209.018921,620.392761 1211.292480,658.093018 
	C1213.661133,697.371643 1223.511597,734.943481 1241.295166,770.134033 
	C1246.666748,780.763550 1253.912842,790.440002 1260.190552,800.620728 
	C1262.159424,803.813599 1263.769043,807.227905 1266.213379,811.792786 
	C1262.188721,811.792786 1259.862183,812.333435 1257.905029,811.711609 
	C1229.600708,802.717163 1203.839844,788.941284 1182.235229,768.472534 
	C1136.138916,724.799561 1110.057983,670.499146 1098.651123,608.544922 
	C1092.278931,573.935974 1091.445312,539.014526 1093.506958,504.112061 
	C1095.250488,474.598145 1100.692139,445.446838 1107.316650,416.624207 
	C1113.951416,387.756866 1120.455322,358.854248 1122.519165,329.264099 
	C1124.294312,303.813019 1121.691528,278.760986 1111.548218,254.932571 
	C1109.898560,251.057419 1108.625610,247.021927 1106.520386,241.259003 
	C1111.119019,241.718414 1113.955444,241.720581 1116.660767,242.316696 
	C1137.433716,246.893967 1155.811401,256.966248 1173.956787,267.536621 
	C1197.599976,281.309662 1216.062744,300.983337 1234.827148,321.336731 
z"/>
  </g>
  <g id="petal-layer-3">
    <path fill="#EF751E" opacity="1.000000" stroke="none" 
	d="
M1088.062378,704.269287 
	C1100.633423,731.755676 1116.316895,756.299805 1136.703735,776.609192 
	C1135.791016,782.252441 1132.418823,782.699341 1129.025391,782.961609 
	C1096.898315,785.444092 1066.697754,779.046875 1038.724365,762.938293 
	C998.924255,740.019287 969.792542,707.053284 948.280823,666.833374 
	C931.619324,635.681824 921.192566,602.454407 915.258423,567.826111 
	C909.511230,534.288940 908.999695,500.350494 908.814392,466.395538 
	C908.523376,413.071289 899.875916,361.110748 880.808594,311.209503 
	C875.248962,296.659363 867.531616,282.932983 860.779602,268.840393 
	C860.205994,267.643250 859.368591,266.572388 858.795227,265.375092 
	C855.737854,258.990417 857.396179,255.483368 864.357849,255.528656 
	C871.975769,255.578247 879.720459,256.130249 887.177307,257.624207 
	C930.127441,266.229218 968.189697,284.788330 1001.778015,313.130371 
	C1026.720581,334.177063 1046.229858,359.714813 1065.476685,385.616730 
	C1069.871216,391.530640 1071.134766,397.578705 1069.283569,405.202667 
	C1060.630371,440.841248 1056.243164,477.045288 1054.250854,513.723389 
	C1051.267456,568.645935 1059.630981,621.829224 1075.573853,674.060913 
	C1078.668457,684.199402 1083.621704,693.770569 1088.062378,704.269287 
z"/>
  </g>
  <g id="petal-layer-4">
    <path fill="#EF751E" opacity="1.000000" stroke="none" 
	d="
M1914.777344,456.010315 
	C1914.146484,482.294830 1914.587524,507.662506 1912.665771,532.849915 
	C1909.183350,578.489685 1901.453003,623.315002 1880.351074,664.753296 
	C1862.055542,700.680969 1839.510010,733.582581 1808.287354,759.426758 
	C1776.198242,785.988159 1739.192871,800.323425 1696.905029,798.610718 
	C1691.788574,798.403442 1686.717407,797.080078 1679.873901,795.996826 
	C1682.445435,792.254822 1683.566406,789.954285 1685.274902,788.238586 
	C1709.249878,764.159058 1728.506592,736.780151 1742.236694,705.703979 
	C1755.598389,675.461731 1765.508911,644.253723 1769.433960,611.141602 
	C1772.342407,586.604431 1773.612061,562.099792 1772.961548,537.462463 
	C1772.258667,510.834961 1768.740479,484.473724 1763.986328,458.324402 
	C1760.901245,441.355713 1756.667480,424.583954 1752.541382,407.824219 
	C1751.403198,403.201477 1751.655884,399.341644 1754.416748,395.594849 
	C1768.015991,377.138916 1781.363403,358.490143 1795.296997,340.290253 
	C1809.146240,322.200378 1826.234375,307.341919 1844.434570,293.789886 
	C1875.350586,270.769226 1910.584839,258.663879 1948.388550,253.266525 
	C1956.327148,252.133148 1961.828369,252.699646 1968.643677,255.036804 
	C1967.484985,257.360260 1966.648682,259.765930 1965.235229,261.762939 
	C1941.614624,295.131653 1930.547119,333.303528 1922.550659,372.682526 
	C1917.032349,399.857086 1914.857910,427.331787 1914.777344,456.010315 
z"/>
  </g>
  <g id="stem">
    <path fill="#1F3565" opacity="1.000000" stroke="none" 
	d="
M1519.973877,1392.253174 
	C1507.864136,1390.901978 1495.754395,1389.550781 1482.226074,1387.910522 
	C1470.111572,1381.398804 1469.990601,1374.681152 1480.481079,1368.662231 
	C1481.854126,1367.874512 1483.290283,1367.197021 1485.482544,1366.415039 
	C1493.568359,1365.250244 1500.868774,1364.138794 1509.087769,1363.170288 
	C1522.051758,1362.710815 1534.097290,1362.108398 1547.054321,1361.633911 
	C1554.502441,1361.928711 1561.039185,1362.091064 1567.575562,1362.263672 
	C1574.712769,1362.452148 1581.041870,1364.563965 1585.972168,1370.562500 
	C1586.464233,1372.042969 1586.940674,1372.982788 1587.290039,1374.594238 
	C1586.382568,1377.380859 1585.602173,1379.496216 1584.184814,1381.815674 
	C1575.497803,1384.726685 1567.623657,1388.701172 1559.357178,1389.848511 
	C1546.368408,1391.651367 1533.115112,1391.548828 1519.973877,1392.253174 
z"/>
    <path fill="#1E3362" opacity="1.000000" stroke="none" 
	d="
M1235.995239,1398.032837 
	C1233.149170,1396.673218 1230.303223,1395.313599 1226.560669,1393.150391 
	C1221.764404,1384.177612 1222.589478,1380.579468 1230.031250,1377.413330 
	C1233.925049,1375.756836 1238.300049,1374.754150 1242.529541,1374.447998 
	C1258.767212,1373.271729 1275.025635,1372.129150 1291.294312,1371.753784 
	C1297.780151,1371.604126 1304.312744,1373.480957 1311.261475,1375.045410 
	C1317.948853,1384.134888 1317.282104,1388.936768 1309.015381,1394.160034 
	C1307.097534,1395.371704 1304.989746,1396.282959 1302.169312,1397.379883 
	C1290.935547,1398.664062 1280.501831,1399.901001 1269.190918,1400.896729 
	C1262.853394,1400.559082 1257.393311,1400.462646 1251.472168,1400.189453 
	C1251.011108,1400.012695 1250.044800,1400.216675 1249.300781,1399.930542 
	C1244.369629,1399.107300 1240.182373,1398.570068 1235.995239,1398.032837 
z"/>
    <path fill="#1E3362" opacity="1.000000" stroke="none" 
	d="
M1489.281372,1331.123291 
	C1489.977783,1338.248779 1486.996826,1343.417603 1480.434082,1347.423584 
	C1469.221802,1348.883301 1458.453491,1349.836304 1446.006226,1350.822021 
	C1433.559326,1350.677124 1422.791260,1350.499390 1411.262207,1350.094849 
	C1409.531372,1349.728271 1408.544556,1349.660645 1407.593994,1349.438232 
	C1390.656372,1345.473145 1388.498413,1341.002686 1397.117188,1326.193359 
	C1402.587280,1325.287598 1407.267578,1324.334595 1412.821045,1323.536499 
	C1418.003296,1323.422974 1422.309082,1323.029907 1426.622437,1322.908691 
	C1441.227173,1322.498169 1455.835571,1321.891235 1470.440186,1321.954224 
	C1477.892090,1321.986206 1484.919067,1324.137085 1489.281372,1331.123291 
z"/>
    <path fill="#1E3362" opacity="1.000000" stroke="none" 
	d="
M1445.807739,1364.613037 
	C1446.322144,1365.018555 1446.783081,1365.536011 1447.359497,1365.811890 
	C1452.395996,1368.221436 1456.651001,1371.248047 1456.405884,1377.638184 
	C1456.168945,1383.818481 1451.259521,1385.630127 1445.266479,1388.038208 
	C1433.212280,1389.599609 1422.609497,1390.865479 1411.216064,1391.974976 
	C1408.289917,1391.977417 1406.154541,1392.136108 1403.192383,1392.112061 
	C1399.557739,1392.056763 1396.749756,1392.184448 1393.473633,1392.165283 
	C1393.005615,1392.018433 1392.051758,1392.247437 1391.312256,1392.007080 
	C1387.013794,1391.330444 1383.454834,1390.894165 1379.251709,1390.166748 
	C1373.883911,1387.205811 1369.160522,1384.535889 1364.335693,1381.090942 
	C1364.306152,1378.249023 1364.378296,1376.182007 1364.966431,1373.843506 
	C1367.036133,1371.856689 1368.589844,1370.141602 1370.801880,1368.118652 
	C1373.629883,1367.041260 1375.799316,1366.271362 1378.795410,1365.576294 
	C1390.363037,1364.744141 1401.104004,1363.837280 1412.773438,1363.069214 
	C1424.403931,1363.676392 1435.105835,1364.144653 1445.807739,1364.613037 
z"/>
    <path fill="#1E3362" opacity="1.000000" stroke="none" 
	d="
M1605.972046,1317.863403 
	C1610.340942,1320.247437 1615.682495,1321.354126 1618.018555,1327.421021 
	C1617.591675,1336.016724 1612.150391,1339.487793 1603.865967,1341.819092 
	C1597.616699,1342.593140 1592.818481,1343.174927 1588.020264,1343.756592 
	C1576.616211,1343.630737 1565.212280,1343.504761 1552.890625,1343.591309 
	C1546.121216,1343.164795 1540.218262,1342.818359 1534.431641,1341.807129 
	C1528.255005,1340.727661 1521.908203,1339.390259 1520.968384,1330.317139 
	C1524.654907,1321.731445 1531.094360,1319.065796 1538.579590,1318.057495 
	C1543.095093,1317.449219 1547.616943,1316.886597 1553.031738,1316.471313 
	C1560.619263,1316.334961 1567.310913,1316.030884 1574.904541,1315.899170 
	C1585.861572,1316.668823 1595.916870,1317.266113 1605.972046,1317.863403 
z"/>
    <path fill="#1E3362" opacity="1.000000" stroke="none" 
	d="
M1236.840820,1353.721924 
	C1234.028687,1352.488281 1232.074585,1351.279297 1229.283325,1349.105713 
	C1227.824097,1339.977539 1228.495483,1338.262329 1234.882935,1335.834351 
	C1238.220337,1334.565430 1241.944336,1333.693848 1245.489258,1333.709106 
	C1255.085571,1333.750244 1264.721069,1333.930298 1274.264648,1334.848755 
	C1288.252686,1336.194702 1301.994019,1335.820435 1315.697510,1332.408081 
	C1324.353027,1330.252686 1333.191528,1328.832642 1342.748291,1327.255005 
	C1345.725220,1327.463745 1347.902100,1327.500000 1350.531006,1327.733398 
	C1350.983154,1327.930542 1351.960083,1327.795044 1352.508667,1328.152344 
	C1354.707031,1329.002563 1356.356934,1329.495483 1358.492188,1330.502930 
	C1365.642944,1334.881226 1368.406738,1340.246826 1364.800293,1348.062988 
	C1356.765015,1350.988281 1349.373535,1353.667236 1341.982178,1356.346069 
	C1336.370239,1356.905518 1330.744873,1357.356812 1325.148438,1358.042480 
	C1295.746582,1361.645142 1266.710083,1357.990356 1236.840820,1353.721924 
z"/>
    <path fill="#1C3160" opacity="1.000000" stroke="none" 
	d="
M1548.003784,1303.744873 
	C1542.432739,1303.233154 1536.852661,1302.803345 1531.294312,1302.178467 
	C1528.034058,1301.812012 1524.704590,1301.479370 1521.586304,1300.536499 
	C1510.610474,1297.217285 1508.781006,1291.027222 1516.806030,1280.696533 
	C1523.698364,1277.931519 1529.429688,1275.540894 1535.396973,1274.197144 
	C1540.747437,1272.992188 1546.357056,1272.939209 1552.717529,1272.679443 
	C1559.053955,1273.034424 1564.525391,1273.088013 1570.770996,1273.382568 
	C1573.697754,1273.702515 1575.850342,1273.781494 1578.664307,1274.180176 
	C1589.367676,1276.659302 1598.076660,1280.411377 1600.231445,1291.995117 
	C1599.976318,1292.809204 1599.721069,1293.623291 1598.822998,1295.496582 
	C1594.506226,1300.897339 1589.559692,1302.004761 1584.179688,1302.261841 
	C1576.068481,1302.649536 1567.965698,1303.209839 1559.035156,1303.466553 
	C1554.808594,1303.405884 1551.406250,1303.575317 1548.003784,1303.744873 
z"/>
  </g>
  <g id="leaves">
    <path fill="#06904C" opacity="1.000000" stroke="none" 
	d="
M1466.574707,998.483826 
	C1455.620117,1008.421570 1447.206055,1019.376160 1440.079590,1031.566895 
	C1428.443115,1051.472534 1400.116699,1051.733887 1386.983643,1032.477051 
	C1382.132446,1025.363770 1377.655518,1017.910889 1372.113159,1011.371155 
	C1360.916016,998.158997 1345.604370,990.455994 1330.670532,982.462952 
	C1317.745239,975.544983 1304.880981,968.616455 1294.713867,957.767822 
	C1280.752197,942.870300 1272.778809,924.887756 1272.399292,904.770386 
	C1272.029419,885.156250 1281.146240,868.927612 1296.729004,856.729431 
	C1300.714600,853.609558 1305.091187,853.103271 1309.741699,855.827881 
	C1329.564697,867.441895 1351.512573,872.812683 1373.804810,876.698242 
	C1397.113647,880.760925 1420.626709,881.663391 1444.156250,878.315063 
	C1453.326416,877.010193 1462.481689,875.564026 1471.598389,873.928955 
	C1486.820312,871.199219 1501.029297,865.458923 1514.203613,857.597229 
	C1521.297607,853.363831 1527.020874,854.924561 1532.330566,859.467102 
	C1544.668823,870.022766 1552.770508,883.423828 1553.850464,899.724915 
	C1555.688354,927.468018 1544.714355,949.736389 1521.734863,965.356445 
	C1511.889893,972.048462 1500.784668,976.857910 1490.486084,982.920410 
	C1482.497314,987.623108 1474.872070,992.942871 1466.574707,998.483826 
z"/>
    <path fill="#06904C" opacity="1.000000" stroke="none" 
	d="
M1158.127441,944.156494 
	C1131.700195,934.854492 1109.475952,919.629333 1087.353271,904.330872 
	C1069.336060,891.871399 1049.937134,882.852722 1028.282104,879.328308 
	C1020.800598,878.110657 1013.083435,878.297791 1005.468689,877.961304 
	C1001.958679,877.806091 998.436157,877.934753 994.307983,877.934753 
	C994.905640,867.876709 1000.553650,861.694824 1005.469727,856.002197 
	C1019.193115,840.111206 1034.200195,825.522766 1053.942139,816.822754 
	C1059.706421,814.282532 1064.954468,813.332458 1071.192871,815.197632 
	C1092.740601,821.639771 1114.927612,823.614441 1137.227905,821.675659 
	C1148.698242,820.678467 1159.935303,817.184265 1171.350220,815.245544 
	C1174.708130,814.675232 1178.871094,814.488037 1181.719116,815.958008 
	C1205.400024,828.181030 1229.575562,839.132507 1255.173706,846.751160 
	C1255.740479,846.919861 1256.157349,847.592163 1257.459106,848.761780 
	C1248.131226,862.762207 1240.141602,877.675476 1238.289185,894.750977 
	C1236.434692,911.847473 1238.871216,928.552551 1246.086182,944.107483 
	C1240.104614,951.674438 1231.739746,951.249207 1224.620972,951.731140 
	C1202.364014,953.238098 1180.089722,952.992798 1158.127441,944.156494 
z"/>
    <path fill="#06904C" opacity="1.000000" stroke="none" 
	d="
M1747.320068,899.310120 
	C1738.298096,905.639526 1729.882812,911.564209 1721.484985,917.513428 
	C1701.036499,931.999573 1679.875244,945.080811 1655.006714,950.671082 
	C1633.007812,955.616455 1610.884644,955.635559 1588.741821,951.772827 
	C1585.555542,951.216919 1582.527344,949.755798 1578.384766,948.363708 
	C1583.375732,932.451111 1589.002075,917.165222 1587.943481,900.553467 
	C1586.888550,883.999695 1581.053467,868.997009 1572.703247,853.463989 
	C1580.240479,850.506226 1586.634399,848.121155 1592.928955,845.497742 
	C1602.130249,841.662903 1611.142456,837.337952 1620.481812,833.889771 
	C1623.949707,832.609375 1628.422974,832.129272 1631.911743,833.125854 
	C1665.686646,842.773804 1699.391235,842.614868 1733.125366,833.233582 
	C1744.001465,830.208923 1754.941284,827.309631 1765.584839,823.589294 
	C1772.431152,821.196289 1778.832153,821.470398 1784.880859,824.646301 
	C1806.433472,835.962585 1822.740479,852.496826 1833.103394,874.666565 
	C1833.332031,875.155762 1832.989014,875.912109 1832.814209,877.358521 
	C1818.349854,879.385193 1803.242920,876.048645 1788.797974,880.726685 
	C1774.509888,885.353943 1760.473145,890.417480 1747.320068,899.310120 
z"/>
  </g>
</svg>